<?xml version="1.0" ?><svg id="Layer_1" style="enable-background:new 0 0 24 24;" version="1.1" viewBox="0 0 24 24" xml:space="preserve" xmlns="http://www.w3.org/2000/svg" xmlns:xlink="http://www.w3.org/1999/xlink"><g id="XMLID_1708_"><path d="M22.5,21.793V8.044l0.197-0.084c0.254-0.109,0.372-0.403,0.263-0.656   c-0.108-0.255-0.405-0.373-0.656-0.263l-0.168,0.072l-5.261-5.944c-0.002-0.003-0.006-0.003-0.008-0.006   c-0.046-0.05-0.102-0.093-0.169-0.122c-0.001,0-0.002,0-0.002,0c-0.017-0.007-0.036-0.006-0.054-0.011   c-0.053-0.016-0.106-0.027-0.159-0.025c-0.006,0-0.011-0.003-0.017-0.003L2.694,1.986L1.855,1.147   c-0.195-0.195-0.512-0.195-0.707,0s-0.195,0.512,0,0.707l0.854,0.854v13.035l-0.697,0.299c-0.254,0.109-0.372,0.403-0.263,0.656   c0.081,0.19,0.266,0.303,0.459,0.303c0.066,0,0.133-0.013,0.197-0.041l0.71-0.304l5.123,4.507l-0.489,1.141   c-0.109,0.253,0.009,0.547,0.263,0.656c0.064,0.028,0.131,0.041,0.197,0.041c0.194,0,0.378-0.113,0.459-0.303l0.541-1.261   l10.332-1.896l2.814,2.814l0.001,0.001l0.499,0.499C22.243,22.951,22.372,23,22.5,23s0.256-0.049,0.354-0.146   c0.195-0.195,0.195-0.512,0-0.707L22.5,21.793z M21.5,20.793l-1.989-1.989l0.542-9.712l1.447-0.62   C21.5,8.472,21.5,20.793,21.5,20.793z M16.517,15.81l0.449-5.395l2.061-0.883l-0.465,8.324L16.517,15.81z M13.746,9.194   l1.586,0.834l-2.38,1.02L13.746,9.194z M16.516,9.521l-2.374-1.249l1.056-2.464l3.422,2.811L16.516,9.521z M11.831,11.124   L7.532,6.825l6.644-1.172L11.831,11.124z M11.123,11.831l-4.889,2.095l0.654-6.331L11.123,11.831z M11.048,12.952l-1.609,3.756   l-2.755-1.885L11.048,12.952z M12.168,12.876l2.84,2.84l-4.502,1.039L12.168,12.876z M12.876,12.169l3.051-1.307l-0.335,4.023   L12.876,12.169z M19.653,8.176l-4.047-3.324l1.041-2.43l4.518,5.105L19.653,8.176z M15.718,2.057l-1.07,2.498L6.671,5.963   L3.629,2.921L15.718,2.057z M3,3.707l2.978,2.978l-0.795,7.693L3,15.313V3.707z M3.424,16.219l2.17-0.93l3.443,2.355l-1.093,2.551   L3.424,16.219z M8.972,20.332l1.045-2.438l5.825-1.344l2.13,2.13L8.972,20.332z" id="XMLID_1317_" style="fill:#303C42;"/><linearGradient gradientUnits="userSpaceOnUse" id="XMLID_2_" x1="-1.0992" x2="25.1002" y1="5.8915" y2="18.1085"><stop offset="0" style="stop-color:#FFFFFF;stop-opacity:0.2"/><stop offset="1" style="stop-color:#FFFFFF;stop-opacity:0"/></linearGradient><path d="M22.5,21.793V8.044l0.197-0.084c0.254-0.109,0.372-0.403,0.263-0.656   c-0.108-0.255-0.405-0.373-0.656-0.263l-0.168,0.072l-5.261-5.944c-0.002-0.003-0.006-0.003-0.008-0.006   c-0.046-0.05-0.102-0.093-0.169-0.122c-0.001,0-0.002,0-0.002,0c-0.018-0.008-0.037-0.006-0.055-0.012   c-0.053-0.016-0.106-0.027-0.159-0.025c-0.006,0-0.011-0.003-0.017-0.003L2.693,1.985L1.854,1.146   c-0.195-0.195-0.512-0.195-0.707,0s-0.195,0.512,0,0.707L2,2.707v13.035l-0.697,0.299c-0.254,0.109-0.372,0.403-0.263,0.656   C1.121,16.887,1.306,17,1.499,17c0.066,0,0.133-0.013,0.197-0.041l0.71-0.304l5.123,4.507L7.04,22.303   c-0.109,0.253,0.009,0.547,0.263,0.656C7.367,22.987,7.435,23,7.501,23c0.194,0,0.378-0.113,0.459-0.303l0.54-1.261l10.332-1.896   l2.814,2.814l0.001,0.001l0.499,0.499C22.243,22.951,22.372,23,22.5,23s0.256-0.049,0.354-0.146c0.195-0.195,0.195-0.512,0-0.707   L22.5,21.793z M21.5,20.793l-1.989-1.989l0.542-9.712l1.447-0.62C21.5,8.472,21.5,20.793,21.5,20.793z M16.517,15.81l0.449-5.395   l2.061-0.883l-0.465,8.324L16.517,15.81z M13.746,9.194l1.586,0.834l-2.38,1.02L13.746,9.194z M16.516,9.521l-2.374-1.249   l1.056-2.464l3.422,2.811L16.516,9.521z M11.831,11.124L7.532,6.825l6.644-1.172L11.831,11.124z M11.123,11.831l-4.889,2.095   l0.654-6.331L11.123,11.831z M11.048,12.952l-1.609,3.756l-2.755-1.885L11.048,12.952z M12.168,12.876l2.84,2.84l-4.502,1.039   L12.168,12.876z M12.876,12.169l3.051-1.307l-0.335,4.023L12.876,12.169z M19.653,8.176l-4.047-3.324l1.041-2.43l4.518,5.105   L19.653,8.176z M15.718,2.057l-1.07,2.498L6.671,5.963L3.629,2.921L15.718,2.057z M3,3.707l2.978,2.978l-0.795,7.693L3,15.313   V3.707z M3.424,16.219l2.17-0.93l3.443,2.355l-1.093,2.551L3.424,16.219z M8.972,20.332l1.045-2.438l5.825-1.344l2.13,2.13   L8.972,20.332z" id="XMLID_1517_" style="fill:url(#XMLID_2_);"/></g></svg>